<svg width="32" height="32" viewBox="0 0 32 32" fill="none" xmlns="http://www.w3.org/2000/svg">
<path fill-rule="evenodd" clip-rule="evenodd" d="M18.3436 2.67064L19.8005 2.68647L20.6424 2.71031L21.497 2.7464C22.917 2.81173 23.885 3.03707 24.7344 3.3664C25.6104 3.7064 26.3544 4.16373 27.0944 4.90373C27.837 5.6464 28.293 6.38907 28.6344 7.2664C28.9308 8.0296 29.1429 8.89108 29.2291 10.09L29.2817 11.1645C29.3127 11.9379 29.3264 12.6031 29.331 14.2336L29.3271 18.6372L29.3167 19.5968L29.2982 20.3787L29.253 21.4971C29.189 22.9171 28.9637 23.8851 28.6344 24.7331C28.293 25.6104 27.837 26.3544 27.0944 27.0957C26.3544 27.8371 25.6104 28.2931 24.7344 28.6331C23.97 28.9295 23.1094 29.1416 21.9098 29.2287L20.8354 29.2817L18.6666 29.3333H14.6666L14.6666 29.3293L13.3622 29.3271L12.4027 29.3167L11.6207 29.2982L10.5024 29.2531C9.0837 29.1877 8.11437 28.9624 7.26504 28.6331C6.38904 28.2931 5.64504 27.8371 4.90504 27.0957C4.16237 26.3544 3.70637 25.6104 3.36637 24.7331C3.03704 23.8851 2.8117 22.9171 2.7477 21.4971L2.6905 19.9763L2.66908 17.9841L2.66663 16.7288L2.67063 13.6561L2.68231 12.4405L2.70111 11.6396L2.7477 10.5024C2.8117 9.08373 3.03704 8.1144 3.36637 7.2664C3.70637 6.38907 4.16237 5.6464 4.90504 4.90373C5.64504 4.16373 6.38904 3.7064 7.26504 3.3664C8.11437 3.03707 9.0837 2.81173 10.5024 2.7464L12.0232 2.69025L13.6558 2.67064H18.3436ZM18.3267 4.00001L13.1131 4.00368L12.07 4.01879L10.5613 4.07443C9.3813 4.12878 8.537 4.29844 7.7451 4.6055C6.9982 4.89539 6.42326 5.26486 5.84546 5.84265C5.2655 6.42262 4.89728 6.99588 4.60688 7.74521C4.29982 8.53586 4.13049 9.37957 4.07725 10.5597L4.02733 11.8047L4.0132 12.4494L4.00159 13.6539L3.99996 17.9659L4.02051 19.9223L4.0773 21.4331C4.13047 22.6129 4.29959 23.4552 4.60723 24.2474C4.89774 24.997 5.26607 25.5707 5.84631 26.1499C6.42246 26.7271 6.99622 27.0955 7.74469 27.386C8.537 27.6933 9.3813 27.8629 10.56 27.9172L11.7861 27.9657L12.4148 27.9795L13.361 27.9899L14.6643 27.9894L14.6643 19.9961H10.6643V15.9961H14.6631V13.3214C14.6631 9.8731 16.3574 7.99611 19.4945 7.99611L20.3645 8.00788C21.4762 8.03744 22.3638 8.11519 22.6643 8.15364V11.9961L19.9976 11.9974C19.2369 11.9974 18.6643 12.602 18.6643 13.3294V15.9961H22.6643L22.1184 19.9961H18.6643L18.6661 27.971L20.7673 27.9461L21.8109 27.895C22.8005 27.8232 23.5416 27.6607 24.2495 27.3862C24.9984 27.0955 25.5722 26.7271 26.15 26.1482C26.7284 25.5709 27.0971 24.997 27.3891 24.2465C27.6964 23.4552 27.8655 22.6129 27.9187 21.4332L27.9671 20.207L27.981 19.5784L27.9914 18.6321L27.991 13.2988L27.9716 11.9564L27.9476 11.2258L27.8968 10.1816C27.8257 9.19302 27.6634 8.45149 27.3894 7.74596C27.0976 6.99593 26.729 6.42243 26.1492 5.84265C25.5714 5.26486 24.9964 4.89539 24.25 4.60566C23.457 4.29821 22.6141 4.12876 21.4347 4.0745L19.9696 4.01984L18.3267 4.00001Z" fill="#202E44"/>
</svg>
