<svg width="24" height="24" viewBox="0 0 24 24" fill="none" xmlns="http://www.w3.org/2000/svg">
<path fill-rule="evenodd" clip-rule="evenodd" d="M17.6552 4.3213C19.1672 5.8223 20.0002 7.8173 20.0002 9.9403C20.0002 11.0087 19.7662 12.0307 19.387 13.0027C18.5673 15.1045 12.8258 21.5911 12.7288 21.6871C12.6318 21.7831 12.3951 22.0004 11.9999 22.0004C11.6048 22.0004 11.3742 21.7831 11.2752 21.6871C11.1762 21.5911 5.50082 15.1045 4.61377 13.0035C4.20986 12.0468 4.00024 11.009 4.00024 9.9403C4.00024 7.8173 4.83324 5.8223 6.34524 4.3213C9.46324 1.2273 14.5372 1.2263 17.6552 4.3213ZM7.04663 5.02341C5.72307 6.33261 5.00024 8.05814 5.00024 9.90533C5.00024 10.8346 5.18138 11.7338 5.53229 12.5619C5.86309 13.3426 7.35376 15.3845 9.4236 17.9205C10.2473 18.9297 11.3007 20.1757 12.0061 21.0004C12.7209 20.1729 13.7782 18.9316 14.6114 17.916C16.6744 15.401 18.1527 13.3656 18.4443 12.6205C18.8135 11.6773 19.0002 10.7805 19.0002 9.90533C19.0002 8.05814 18.2774 6.33261 16.9539 5.0235C14.2265 2.32591 9.7746 2.32618 7.04663 5.02341ZM11.9999 7.0004C13.6568 7.0004 14.9999 8.34355 14.9999 10.0004C14.9999 11.6573 13.6568 13.0004 11.9999 13.0004C10.3431 13.0004 8.99994 11.6573 8.99994 10.0004C8.99994 8.34355 10.3431 7.0004 11.9999 7.0004ZM11.9999 8.0004C10.8954 8.0004 9.99994 8.89583 9.99994 10.0004C9.99994 11.105 10.8954 12.0004 11.9999 12.0004C13.1045 12.0004 13.9999 11.105 13.9999 10.0004C13.9999 8.89583 13.1045 8.0004 11.9999 8.0004Z" fill="#868F9E"/>
</svg>
