<svg width="32" height="32" viewBox="0 0 32 32" fill="none" xmlns="http://www.w3.org/2000/svg">
<path fill-rule="evenodd" clip-rule="evenodd" d="M18.3436 2.67064L19.8005 2.68647L20.6424 2.71031L21.497 2.7464C22.917 2.81173 23.885 3.03707 24.7344 3.3664C25.6104 3.7064 26.3544 4.16373 27.0944 4.90373C27.837 5.6464 28.293 6.38907 28.6344 7.2664C28.9308 8.0296 29.1429 8.89108 29.2291 10.09L29.2817 11.1645C29.3127 11.9379 29.3264 12.6031 29.331 14.2336L29.3271 18.6372L29.3167 19.5968L29.2982 20.3787L29.253 21.4971C29.189 22.9171 28.9637 23.8851 28.6344 24.7331C28.293 25.6104 27.837 26.3544 27.0944 27.0957C26.3544 27.8371 25.6104 28.2931 24.7344 28.6331C23.97 28.9295 23.1094 29.1416 21.9098 29.2287L20.8354 29.2817C20.0624 29.3127 19.3967 29.3264 17.766 29.3311L13.3622 29.3271L12.4027 29.3167L11.6207 29.2982L10.5024 29.2531C9.0837 29.1877 8.11437 28.9624 7.26504 28.6331C6.38904 28.2931 5.64504 27.8371 4.90504 27.0957C4.16237 26.3544 3.70637 25.6104 3.36637 24.7331C3.03704 23.8851 2.8117 22.9171 2.7477 21.4971L2.6905 19.9763L2.66908 17.9841L2.66663 16.7288L2.67063 13.6561L2.68231 12.4405L2.70111 11.6396L2.7477 10.5024C2.8117 9.08373 3.03704 8.1144 3.36637 7.2664C3.70637 6.38907 4.16237 5.6464 4.90504 4.90373C5.64504 4.16373 6.38904 3.7064 7.26504 3.3664C8.11437 3.03707 9.0837 2.81173 10.5024 2.7464L12.0232 2.69025L13.4585 2.67174L18.3436 2.67064ZM18.328 4.00267L13.4757 4.00496L12.0724 4.02268L10.5637 4.07832C9.38368 4.13267 8.53938 4.30233 7.74748 4.60939C7.00058 4.89928 6.42564 5.26875 5.84784 5.84654C5.26788 6.42651 4.89966 6.99977 4.60926 7.7491C4.33632 8.45189 4.1722 9.19662 4.10191 10.1776L4.07992 10.557L4.03407 11.6709L4.01558 12.4533L4.00397 13.6578L3.99996 16.7262L4.00234 17.9698L4.02289 19.9262L4.07968 21.437C4.13285 22.6168 4.30197 23.4591 4.60961 24.2513C4.90012 25.0009 5.26845 25.5746 5.84869 26.1538C6.42484 26.731 6.9986 27.0994 7.74707 27.3899C8.45134 27.663 9.1967 27.8274 10.1771 27.8985L10.5561 27.9208L11.6522 27.9652L12.4171 27.9834L13.3634 27.9938L18.6971 27.9934L20.0397 27.974L20.7697 27.95L21.8133 27.8989C22.8029 27.827 23.544 27.6646 24.2519 27.3901C25.0008 27.0994 25.5746 26.731 26.1524 26.1521C26.7308 25.5748 27.0995 25.0009 27.3915 24.2504C27.6646 23.547 27.8286 22.8033 27.8988 21.8226L27.9208 21.4433L27.9652 20.3472L27.9834 19.5823L27.9937 18.636L27.9934 13.3027L27.9739 11.9603L27.9499 11.2297L27.8991 10.1855C27.8281 9.1969 27.6658 8.45538 27.3918 7.74984C27.1 6.99982 26.7313 6.42632 26.1516 5.84654C25.5738 5.26875 24.9988 4.89928 24.2523 4.60955C23.5475 4.33626 22.8032 4.17201 21.8207 4.10088L21.4408 4.07855L20.6046 4.04311L19.786 4.01973L18.328 4.00267ZM12 10.6667L21.3333 16.0002L12.0232 21.3333L12 10.6667Z" fill="#202E44"/>
</svg>
